# xmcd CD database file
#
# Track frame offsets:
#	150
#	12847
#	37000
#	51537
#	70090
#	83372
#	95980
#	114365
#	129405
#	145230
#
# Disc length: 1947 seconds
#
# Revision: 0
# Processed by: cddbd v1.5.1PL0 Copyright (c) Steve Scherf et al.
# Submitted via: CDex 1.51
#
DISCID=8507990a
DTITLE=Supersax - Plays Bird With Strings
DYEAR=1974
DGENRE=Jazz
TTITLE0=April In Paris
TTITLE1=All The Things You Are
TTITLE2=My Old Flame
TTITLE3=Blue 'N' Boogie
TTITLE4=I Didn't Know What Time It Was
TTITLE5=If I Should Loose You
TTITLE6=Ornithology
TTITLE7=Cool Blues
TTITLE8=Kim
TTITLE9=Sign Off (Country Gardens)
EXTD=YEAR: 1974
EXTT0=
EXTT1=
EXTT2=
EXTT3=
EXTT4=
EXTT5=
EXTT6=
EXTT7=
EXTT8=
EXTT9=
PLAYORDER=
